<svg width="100" height="100" viewBox="0 0 100 100" fill="none" xmlns="http://www.w3.org/2000/svg">
<rect width="100" height="100" rx="20" fill="#00B894"/>
<path d="M17.896 52.04C17.896 50.2053 18.2373 48.5947 18.92 47.208C19.624 45.8213 20.5733 44.7547 21.768 44.008C22.9627 43.2613 24.296 42.888 25.768 42.888C27.0267 42.888 28.1253 43.144 29.064 43.656C30.024 44.168 30.76 44.84 31.272 45.672V43.144H36.744V61H31.272V58.472C30.7387 59.304 29.992 59.976 29.032 60.488C28.0933 61 26.9947 61.256 25.736 61.256C24.2853 61.256 22.9627 60.8827 21.768 60.136C20.5733 59.368 19.624 58.2907 18.92 56.904C18.2373 55.496 17.896 53.8747 17.896 52.04ZM31.272 52.072C31.272 50.7067 30.888 49.6293 30.12 48.84C29.3733 48.0507 28.456 47.656 27.368 47.656C26.28 47.656 25.352 48.0507 24.584 48.84C23.8373 49.608 23.464 50.6747 23.464 52.04C23.464 53.4053 23.8373 54.4933 24.584 55.304C25.352 56.0933 26.28 56.488 27.368 56.488C28.456 56.488 29.3733 56.0933 30.12 55.304C30.888 54.5147 31.272 53.4373 31.272 52.072ZM46.1748 37.32V61H40.7028V37.32H46.1748ZM72.9243 42.952C75.1429 42.952 76.9029 43.624 78.2043 44.968C79.5269 46.312 80.1883 48.1787 80.1883 50.568V61H74.7483V51.304C74.7483 50.152 74.4389 49.2667 73.8203 48.648C73.2229 48.008 72.3909 47.688 71.3243 47.688C70.2576 47.688 69.4149 48.008 68.7963 48.648C68.1989 49.2667 67.9003 50.152 67.9003 51.304V61H62.4603V51.304C62.4603 50.152 62.1509 49.2667 61.5323 48.648C60.9349 48.008 60.1029 47.688 59.0363 47.688C57.9696 47.688 57.1269 48.008 56.5083 48.648C55.9109 49.2667 55.6123 50.152 55.6123 51.304V61H50.1403V43.144H55.6123V45.384C56.1669 44.6373 56.8923 44.0507 57.7883 43.624C58.6843 43.176 59.6976 42.952 60.8283 42.952C62.1723 42.952 63.3669 43.24 64.4123 43.816C65.4789 44.392 66.3109 45.2133 66.9083 46.28C67.5269 45.2987 68.3696 44.4987 69.4363 43.88C70.5029 43.2613 71.6656 42.952 72.9243 42.952Z" fill="white"/>
<circle cx="76" cy="31" r="5" fill="white"/>
</svg>
